<?xml version="1.0" encoding="iso-8859-1"?>
<!-- Generator: Adobe Illustrator 18.0.0, SVG Export Plug-In . SVG Version: 6.00 Build 0)  -->
<!DOCTYPE svg PUBLIC "-//W3C//DTD SVG 1.1//EN" "http://www.w3.org/Graphics/SVG/1.1/DTD/svg11.dtd">
<!-- License: CC0. Made by SVG Repo: https://www.svgrepo.com/svg/90807/girl -->
<svg version="1.1" id="Capa_1" xmlns="http://www.w3.org/2000/svg" xmlns:xlink="http://www.w3.org/1999/xlink" x="0px" y="0px"
	 viewBox="0 0 296.932 296.932" style="enable-background:new 0 0 296.932 296.932;" xml:space="preserve">
<g>
	<path d="M219.018,182.485h-21.594v-21.317c5-6.207,9.179-13.047,12.594-19.91c1.338-0.239,2.764-0.678,4.095-1.314
		c6.111-2.919,11.696-10.033,14.871-19.031c3.658-10.368,3.242-20.182-0.812-26.215c0.541-11.2,0.204-43.507-19.42-65.397
		c-12.322-13.745-29.69-20.714-51.634-20.714l-0.792,0.003c-6.567,0.05-12.762,0.622-18.59,1.663
		C129.77,2.961,119.828-0.632,109.53,0.091c-8.989,0.642-17.939,4.567-25.565,11.141C78.744,10.794,55.527,9.834,39.291,24.2
		c-10.834,9.586-16.867,23.589-16.867,41.623v95.422c0,2.279,1.54,4.443,3.274,5.922c0.624,0.531,11.079,8.972,27.46,8.971
		c8.083,0,17.654-2.055,28.35-8.128c2.433-1.382,3.916-3.966,3.916-6.765v-31.421c1,2.319,3.265,4.392,5.028,6.095
		c3.134,3.027,6.509,4.857,9.935,5.387c3.58,7.188,8.037,14.346,13.037,20.773v20.406H91.441c-31.501,0-55.491,54.19-55.491,81.173
		c0,3.017,1.743,5.896,4.475,7.177c42.334,19.873,82.25,26.099,115.467,26.098c17.484,0,33.115-1.673,46.258-3.983
		c41.392-7.276,67.31-21.648,68.393-22.256c2.451-1.378,3.967-4.232,3.967-7.044C274.508,236.667,250.519,182.485,219.018,182.485z
		 M188.316,198.456c0,18.016-14.518,32.801-32.534,32.801c-18.015,0-33.036-14.854-33.036-32.869
		c3.468-0.783,5.678-3.877,5.678-7.582v-13.604c8,5.632,16.678,9.141,26.143,9.141c9.75,0,18.857-3.719,26.857-9.654v14.117
		C181.424,194.631,184.677,197.805,188.316,198.456z M156.447,24.147l0.676-0.003c17.306,0,30.766,5.212,40.008,15.488
		c13.872,15.427,15.655,38.847,15.604,50.395c-41.207-0.51-62.907-9.596-73.919-17.253c-11.119-7.732-13.442-15.227-13.694-16.159
		c-0.641-3.983-4.22-6.657-8.232-6.355c-4.06,0.305-7.17,3.853-7.17,7.924c0,7.171-5.313,17.474-11.265,26.365
		c-2.13-15.759,0.596-29.523,8.047-39.718C116.261,31.475,133.533,24.323,156.447,24.147z M117.87,16.368
		c-9.786,4.529-17.86,10.978-23.931,19.283c-3.817,5.224-6.705,11.076-8.665,17.43c-3.08-9.593-0.828-20.54,6.772-28.141
		C98.959,18.026,108.639,13.794,117.87,16.368z M38.424,157.067V65.823c0-13.343,4.023-23.404,11.328-29.909
		c6.614-5.891,15.38-8.129,22.161-8.919c-2.423,5.459-4.007,11.411-4.006,17.563c0,4.284,0.517,8.471,1.517,12.462v99.494
		C54.424,163.574,43.424,159.68,38.424,157.067z M112.406,129.808c-0.646-2.142-2.649-3.602-4.785-4.271
		c-1.668-0.523-3.447-0.465-5.061,0.139c-1.396-0.934-4.384-4.063-6.457-9.938c-0.719-2.039-1.141-3.885-1.369-5.5
		c2.134-0.054,4.184-0.977,5.633-2.614c1.788-2.021,13.316-15.348,20.046-30.263c12.398,12.909,38.994,28.146,95.454,28.241
		c0.226,2.158,0.054,5.696-1.513,10.134c-2.092,5.928-5.112,9.06-6.491,9.964c-1.608-0.527-3.354-0.522-4.976,0.04
		c-2.036,0.704-3.688,2.222-4.563,4.191c-8.375,18.846-24.646,40.817-42.935,40.853
		C137.424,170.818,119.174,152.235,112.406,129.808z M199.454,277.66c-34.966,6.148-88.598,7.701-147.663-18.646
		c2.567-23.425,22.142-60.529,39.649-60.529h16.25c0,26,21.636,48.23,48.23,48.23c26.595,0,48.23-22.23,48.23-48.23h14.866
		c17.564,0,37.208,37.344,39.673,60.756C250.111,263.359,228.933,272.476,199.454,277.66z"/>
	<path d="M208.127,235.485c-4.297,0-7.779,3.703-7.779,8c0,4.297,3.482,8,7.779,8h21.781c4.297,0,7.779-3.703,7.779-8
		c0-4.297-3.482-8-7.779-8H208.127z"/>
</g>
</svg>
